PathFileType	4	(X/Y/Z)	C:/Users/beibeiliu/ov580/test_trc/User1\sequence.28_training_dense_left.trc
DataRate	CameraRate	NumFrames	NumMarkers	Units	OrigDataRate	OrigDataStartFrame	OrigNumFrames
120	120	13	19	mm	120	92	243
Frame#	Time	ThumbCMC			ThumbMCP			ThumbIP			ThumbTip			IndexMCP			IndexPIP			IndexTip			MiddleMCP			MiddlePIP			MiddleTip			RingMCP			RingPIP			RingTip			PinkyMCP			PinkyPIP			PinkyTip			BackHand1			BackHand2			BackHand3	
		X0	Y0	Z0	X1	Y1	Z1	X2	Y2	Z2	X3	Y3	Z3	X4	Y4	Z4	X5	Y5	Z5	X6	Y6	Z6	X7	Y7	Z7	X8	Y8	Z8	X9	Y9	Z9	X10	Y10	Z10	X11	Y11	Z11	X12	Y12	Z12	X13	Y13	Z13	X14	Y14	Z14	X15	Y15	Z15	X16	Y16	Z16	X17	Y17	Z17	X18	Y18	Z18	
91	0.758333	-179.913	-1.2723	23.2208	-154.348	-7.28235	-11.4854	-141.069	-24.7279	-32.7775	-127.168	-44.0821	-42.3868	-202.079	-60.4989	-36.485	-194.164	-71.7152	-58.0777	-181.64	-78.0013	-82.7169	-196.491	-81.6324	-24.7863	-192.588	-96.0266	-58.5452	-177.086	-102.827	-85.5145	-166.329	-91.5946	-24.1781	-145.976	-88.6045	-47.5962	-123.228	-65.7265	-52.6962	-146.737	-92.5275	2.42051	-135.077	-99.3354	-21.0712	-125.356	-99.1683	-47.5364	-178.702	-70.0526	36.2579	-177.151	-58.035	65.7581	-199.294	-40.2455	37.3189	
92	0.766667	-178.531	-0.390606	23.6338	-153.917	-7.79485	-8.03349	-142.057	-26.3122	-33.7364	-128.211	-46.3527	-41.4324	-200.294	-58.3719	-32.8737	-194.754	-71.0699	-60.4773	-181.37	-77.5308	-80.7358	-194.297	-84.3895	-25.5063	-190.422	-95.8887	-56.3356	-177.087	-99.8794	-88.2842	-164.8	-91.2842	-22.1392	-144.306	-86.1351	-49.406	-125.445	-64.5532	-54.9802	-145.847	-94.2795	0.320619	-136.868	-98.3902	-22.2089	-126.751	-94.413	-49.9449	-176.033	-70.857	36.9115	-177.309	-53.6694	68.0432	-196.527	-39.4456	40.7526	
93	0.775	-177.678	-1.41222	24.1065	-153.76	-9.59645	-11.3346	-141.542	-24.6774	-30.027	-126.007	-42.1027	-45.8061	-203.451	-55.3698	-33.5729	-196.977	-68.3514	-59.5517	-183.016	-76.112	-85.7582	-196.556	-82.5618	-30.8393	-192.675	-93.2906	-57.1366	-174.726	-99.0693	-86.2284	-164.006	-90.9338	-24.9828	-146.473	-85.98	-48.8633	-124.835	-60.2059	-55.5073	-148.977	-92.0217	-2.19461	-138.068	-96.7748	-24.9206	-125.834	-91.4683	-50.8577	-180.363	-68.3327	34.7948	-178.134	-52.8777	64.1261	-199.612	-38.2771	38.8596	
94	0.783333	-177.823	-1.89207	25.4831	-152.438	-4.35738	-12.272	-140.745	-24.1712	-35.1793	-127.134	-41.2363	-43.9985	-203.017	-54.3881	-38.4464	-195.045	-68.4631	-60.5006	-183.103	-73.7372	-84.0735	-197.774	-79.5548	-32.3334	-193.074	-90.0034	-61.8106	-172.83	-96.454	-89.6194	-166.799	-88.7255	-24.6712	-149.898	-84.838	-50.674	-122.418	-62.3538	-55.9574	-148.685	-90.5228	-3.26538	-135.653	-97.9958	-21.2979	-125.63	-92.6867	-50.9178	-178.907	-65.0566	33.9722	-178.928	-54.1667	64.9054	-198.065	-38.3603	37.8046	
95	0.791667	-177.722	-0.527124	23.5731	-152.283	-2.14382	-10.7149	-142.562	-23.6136	-33.2482	-125.188	-37.5012	-47.2309	-202.933	-55.1147	-39.4972	-194.956	-68.2445	-63.4685	-180.243	-75.2636	-88.3005	-195.351	-81.1952	-31.3905	-192.713	-88.8368	-58.6495	-170.681	-93.9288	-88.6059	-167.084	-89.9247	-23.694	-151.352	-88.9325	-48.9286	-127.22	-69.7374	-58.003	-147.224	-91.8697	0.983065	-134.652	-96.8453	-26.6422	-127.968	-90.7538	-51.2761	-179.919	-68.898	32.6624	-178.186	-51.05	63.5302	-202.346	-33.8516	34.817	
96	0.8	-177.482	1.13119	20.9334	-153.608	-4.0198	-11.9057	-140.226	-19.3185	-38.4739	-126.326	-37.8888	-47.666	-203.11	-51.9657	-37.5573	-199.233	-64.0908	-65.307	-182.662	-74.2149	-89.2429	-193.641	-77.4718	-29.4857	-187.718	-89.6778	-61.4006	-169.227	-90.7531	-87.3031	-171.773	-87.5996	-24.2797	-153.88	-89.8404	-52.3421	-129.273	-74.8154	-62.2094	-149.224	-91.7453	-3.69085	-137.497	-96.2491	-25.4096	-126.04	-95.2117	-48.2317	-179.51	-67.1826	32.9869	-179.902	-54.3202	63.5091	-199.95	-29.8269	35.6245	
97	0.808333	-176.79	1.60212	22.0412	-153.075	-0.849372	-11.4963	-141.883	-16.071	-33.0987	-126.486	-36.1005	-50.9519	-205.003	-49.4965	-35.2257	-199.706	-64.0987	-66.3075	-184.787	-71.9874	-90.3291	-192.177	-78.5131	-29.8587	-185.551	-87.1631	-64.2164	-164.567	-85.0242	-89.3006	-172.28	-88.195	-22.8486	-154.819	-94.4512	-49.7064	-131.455	-81.6251	-65.3571	-149.724	-92.2003	-1.79042	-139.387	-98.1767	-25.2531	-127.848	-99.1575	-49.3072	-182.453	-64.3731	32.5305	-177.058	-50.5341	66.4149	-198.965	-33.5236	33.8892	
98	0.816667	-177.861	5.57933	21.1384	-152.435	3.64008	-12.7926	-142.439	-14.7914	-38.2589	-129.236	-32.1424	-49.9423	-203.272	-50.6518	-34.6469	-199.292	-63.4967	-65.2341	-186.358	-71.1675	-87.63	-192.265	-76.6467	-31.7675	-185.075	-83.6824	-61.8128	-156.488	-79.4603	-88.7808	-172.009	-89.0763	-21.7699	-157.709	-96.1769	-47.5959	-137.137	-85.6188	-66.5248	-150.341	-91.5446	-0.917369	-140.739	-98.9752	-23.4526	-129.278	-103.223	-48.9166	-180.778	-64.7059	32.4484	-176.806	-50.5197	66.562	-198.562	-28.1304	36.7463	
99	0.825	-177.727	0.816598	19.7824	-154.337	-0.0714774	-13.6498	-143.199	-10.9654	-36.9963	-128.927	-27.3189	-52.2039	-204.024	-52.2792	-37.0971	-201.225	-63.615	-61.5609	-186.006	-71.1955	-88.0613	-191.99	-76.2449	-31.6263	-180.268	-81.6195	-65.7451	-151.246	-73.0338	-87.2732	-172.975	-90.5922	-22.8423	-161.764	-94.6206	-50.5481	-140.218	-85.1919	-69.3629	-153.767	-90.6648	0.786441	-143.304	-101.152	-20.0417	-134.078	-104.549	-44.5995	-181.66	-66.0593	35.1404	-179.58	-50.8423	63.5246	-200.006	-31.4683	38.7313	
100	0.833333	-175.591	3.61896	24.3565	-154.14	2.00123	-14.0084	-144.075	-10.1944	-36.0927	-129.97	-25.0809	-54.6903	-204.786	-49.3838	-35.8679	-200.837	-62.77	-61.0058	-184.458	-72.0698	-88.6938	-191.37	-77.5513	-36.547	-178.3	-81.1412	-64.7502	-148.072	-67.7541	-84.2712	-176.331	-88.4036	-20.38	-164.262	-94.639	-49.8337	-138.658	-87.0562	-69.6821	-151.585	-95.0509	1.52637	-145.651	-102.722	-20.0177	-135.905	-108.825	-44.1821	-182.372	-66.0075	33.926	-179.903	-47.5322	65.841	-199.314	-28.7148	35.327	
101	0.841667	-177.205	2.76088	18.9315	-154.38	-0.511128	-10.1935	-145.321	-13.6456	-34.6324	-132.031	-26.6033	-53.5933	-205.387	-48.931	-36.7547	-201.721	-60.916	-61.6624	-182.917	-72.3978	-89.2911	-191.304	-73.9316	-33.5769	-172.332	-79.2189	-66.0963	-142.999	-67.9072	-77.9082	-177.459	-88.4071	-22.1243	-160.275	-95.9577	-51.9186	-138.525	-86.7733	-67.7844	-153.436	-95.3646	1.77374	-147.484	-102.595	-18.5971	-135.156	-111.145	-43.945	-184.315	-64.8511	34.5512	-179.746	-51.3252	62.4946	-202.301	-30.0473	32.8318	
102	0.85	-177.127	3.70704	18.5421	-155.099	-0.287909	-14.9195	-144.923	-13.3545	-35.9354	-131.817	-28.4529	-54.312	-207.093	-49.0812	-40.0027	-201.692	-61.3023	-64.6602	-183.511	-70.6432	-85.9341	-189.957	-76.273	-36.2202	-174.267	-75.5103	-66.9773	-140.545	-63.5451	-76.2095	-175.441	-89.8185	-20.915	-161.242	-93.5445	-52.3334	-135.836	-86.0676	-66.4684	-155.8	-93.1167	1.55539	-147.167	-103.339	-21.6236	-135.078	-112.673	-43.4032	-183.797	-65.9575	33.5035	-182.502	-48.4745	61.0309	-200.752	-31.9452	33.709	
103	0.858333	-174.948	0.88926	20.3263	-154.784	-0.882723	-11.8563	-144.213	-11.7373	-37.5096	-132.053	-28.779	-55.8576	-205.209	-50.8801	-37.6805	-199.474	-63.6546	-64.9622	-181.269	-69.509	-89.0869	-189.261	-74.3242	-36.8505	-168.156	-75.455	-66.3792	-139.79	-60.5219	-73.0454	-176.941	-87.5135	-23.3561	-161.246	-92.5793	-51.6917	-133.287	-82.2644	-65.9423	-156.166	-95.4047	0.00581529	-147.71	-104.1	-21.8414	-137.326	-113.356	-45.5431	-183.264	-65.1122	32.2942	-182.038	-49.2029	61.0497	-199.272	-31.5089	33.6628	
